<svg width="1200" height="630" viewBox="0 0 1200 630" fill="none" xmlns="http://www.w3.org/2000/svg">
  <!-- 背景 -->
  <rect width="1200" height="630" fill="#fafafa"/>

  <!-- メインタイトル -->
  <text x="600" y="200" text-anchor="middle" font-family="Arial, sans-serif" font-size="64" font-weight="bold" fill="#1f2937">
    ブラック求人チェッカー
  </text>

  <!-- サブタイトル -->
  <text x="600" y="270" text-anchor="middle" font-family="Arial, sans-serif" font-size="36" fill="#6b7280">
    AI求人票解析ツール
  </text>

  <!-- 盾のアイコン（中央） -->
  <g transform="translate(550, 320)">
    <rect width="100" height="100" rx="16" fill="#fafafa" stroke="#ef4444" stroke-width="3"/>
    <path d="M80 45c0 20-14 30-30 42C36 75 20 65 20 45V20a4 4 0 0 1 4-4c8 0 18-5 26-10a4 4 0 0 1 4 0c8 5 18 10 26 10a4 4 0 0 1 4 4z"
          stroke="#ef4444"
          stroke-width="6"
          stroke-linecap="round"
          stroke-linejoin="round"
          fill="#ef4444"
          fill-opacity="0.15"/>
  </g>

  <!-- キャッチフレーズ -->
  <text x="600" y="500" text-anchor="middle" font-family="Arial, sans-serif" font-size="32" fill="#ef4444" font-weight="600">
    求人票の甘い言葉に騙されるな！
  </text>

  <!-- URL -->
  <text x="600" y="560" text-anchor="middle" font-family="Arial, sans-serif" font-size="24" fill="#9ca3af">
    black-checker.vercel.app
  </text>
</svg>
